<svg id="my-svg" width="100%" xmlns="http://www.w3.org/2000/svg" xmlns:xlink="http://www.w3.org/1999/xlink" class="erDiagram" style="max-width: 657.703px; background-color: white;" viewBox="0 0 657.703125 443.5" role="graphics-document document" aria-roledescription="er"><style>#my-svg{font-family:"trebuchet ms",verdana,arial,sans-serif;font-size:16px;fill:#333;}@keyframes edge-animation-frame{from{stroke-dashoffset:0;}}@keyframes dash{to{stroke-dashoffset:0;}}#my-svg .edge-animation-slow{stroke-dasharray:9,5!important;stroke-dashoffset:900;animation:dash 50s linear infinite;stroke-linecap:round;}#my-svg .edge-animation-fast{stroke-dasharray:9,5!important;stroke-dashoffset:900;animation:dash 20s linear infinite;stroke-linecap:round;}#my-svg .error-icon{fill:#552222;}#my-svg .error-text{fill:#552222;stroke:#552222;}#my-svg .edge-thickness-normal{stroke-width:1px;}#my-svg .edge-thickness-thick{stroke-width:3.5px;}#my-svg .edge-pattern-solid{stroke-dasharray:0;}#my-svg .edge-thickness-invisible{stroke-width:0;fill:none;}#my-svg .edge-pattern-dashed{stroke-dasharray:3;}#my-svg .edge-pattern-dotted{stroke-dasharray:2;}#my-svg .marker{fill:#333333;stroke:#333333;}#my-svg .marker.cross{stroke:#333333;}#my-svg svg{font-family:"trebuchet ms",verdana,arial,sans-serif;font-size:16px;}#my-svg p{margin:0;}#my-svg .entityBox{fill:#ECECFF;stroke:#9370DB;}#my-svg .relationshipLabelBox{fill:hsl(80, 100%, 96.2745098039%);opacity:0.7;background-color:hsl(80, 100%, 96.2745098039%);}#my-svg .relationshipLabelBox rect{opacity:0.5;}#my-svg .labelBkg{background-color:rgba(248.6666666666, 255, 235.9999999999, 0.5);}#my-svg .edgeLabel .label{fill:#9370DB;font-size:14px;}#my-svg .label{font-family:"trebuchet ms",verdana,arial,sans-serif;color:#333;}#my-svg .edge-pattern-dashed{stroke-dasharray:8,8;}#my-svg .node rect,#my-svg .node circle,#my-svg .node ellipse,#my-svg .node polygon{fill:#ECECFF;stroke:#9370DB;stroke-width:1px;}#my-svg .relationshipLine{stroke:#333333;stroke-width:1;fill:none;}#my-svg .marker{fill:none!important;stroke:#333333!important;stroke-width:1;}#my-svg :root{--mermaid-font-family:"trebuchet ms",verdana,arial,sans-serif;}</style><g><defs><marker id="my-svg_er-onlyOneStart" class="marker onlyOne er" refX="0" refY="9" markerWidth="18" markerHeight="18" orient="auto"><path d="M9,0 L9,18 M15,0 L15,18"/></marker></defs><defs><marker id="my-svg_er-onlyOneEnd" class="marker onlyOne er" refX="18" refY="9" markerWidth="18" markerHeight="18" orient="auto"><path d="M3,0 L3,18 M9,0 L9,18"/></marker></defs><defs><marker id="my-svg_er-zeroOrOneStart" class="marker zeroOrOne er" refX="0" refY="9" markerWidth="30" markerHeight="18" orient="auto"><circle fill="white" cx="21" cy="9" r="6"/><path d="M9,0 L9,18"/></marker></defs><defs><marker id="my-svg_er-zeroOrOneEnd" class="marker zeroOrOne er" refX="30" refY="9" markerWidth="30" markerHeight="18" orient="auto"><circle fill="white" cx="9" cy="9" r="6"/><path d="M21,0 L21,18"/></marker></defs><defs><marker id="my-svg_er-oneOrMoreStart" class="marker oneOrMore er" refX="18" refY="18" markerWidth="45" markerHeight="36" orient="auto"><path d="M0,18 Q 18,0 36,18 Q 18,36 0,18 M42,9 L42,27"/></marker></defs><defs><marker id="my-svg_er-oneOrMoreEnd" class="marker oneOrMore er" refX="27" refY="18" markerWidth="45" markerHeight="36" orient="auto"><path d="M3,9 L3,27 M9,18 Q27,0 45,18 Q27,36 9,18"/></marker></defs><defs><marker id="my-svg_er-zeroOrMoreStart" class="marker zeroOrMore er" refX="18" refY="18" markerWidth="57" markerHeight="36" orient="auto"><circle fill="white" cx="48" cy="18" r="6"/><path d="M0,18 Q18,0 36,18 Q18,36 0,18"/></marker></defs><defs><marker id="my-svg_er-zeroOrMoreEnd" class="marker zeroOrMore er" refX="39" refY="18" markerWidth="57" markerHeight="36" orient="auto"><circle fill="white" cx="9" cy="18" r="6"/><path d="M21,18 Q39,0 57,18 Q39,36 21,18"/></marker></defs><g class="root"><g class="clusters"/><g class="edgePaths"/><g class="edgeLabels"/><g class="nodes"><g class="node default" id="entity-Venue-0" transform="translate(328.8515625, 221.75)"><g style=""><path d="M-320.8515625 -213.75 L320.8515625 -213.75 L320.8515625 213.75 L-320.8515625 213.75" stroke="none" stroke-width="0" fill="#ECECFF"/><path d="M-320.8515625 -213.75 C-149.29453328069656 -213.75, 22.26249593860689 -213.75, 320.8515625 -213.75 M-320.8515625 -213.75 C-135.77000554000495 -213.75, 49.31155141999011 -213.75, 320.8515625 -213.75 M320.8515625 -213.75 C320.8515625 -84.59587931528597, 320.8515625 44.55824136942806, 320.8515625 213.75 M320.8515625 -213.75 C320.8515625 -86.1842153101971, 320.8515625 41.38156937960579, 320.8515625 213.75 M320.8515625 213.75 C166.06366609030692 213.75, 11.275769680613848 213.75, -320.8515625 213.75 M320.8515625 213.75 C92.34203318745378 213.75, -136.16749612509244 213.75, -320.8515625 213.75 M-320.8515625 213.75 C-320.8515625 48.56901641228248, -320.8515625 -116.61196717543504, -320.8515625 -213.75 M-320.8515625 213.75 C-320.8515625 87.88640862899932, -320.8515625 -37.97718274200136, -320.8515625 -213.75" stroke="#9370DB" stroke-width="1.3" fill="none" stroke-dasharray="0 0"/></g><g style="" class="row-rect-odd"><path d="M-320.8515625 -171 L320.8515625 -171 L320.8515625 -128.25 L-320.8515625 -128.25" stroke="none" stroke-width="0" fill="hsl(240, 100%, 100%)"/><path d="M-320.8515625 -171 C-139.87305563440918 -171, 41.10545123118163 -171, 320.8515625 -171 M-320.8515625 -171 C-69.62294751542294 -171, 181.60566746915413 -171, 320.8515625 -171 M320.8515625 -171 C320.8515625 -160.33688716833208, 320.8515625 -149.6737743366642, 320.8515625 -128.25 M320.8515625 -171 C320.8515625 -159.08860827256663, 320.8515625 -147.17721654513326, 320.8515625 -128.25 M320.8515625 -128.25 C184.5276185473089 -128.25, 48.20367459461778 -128.25, -320.8515625 -128.25 M320.8515625 -128.25 C114.16785083595326 -128.25, -92.51586082809348 -128.25, -320.8515625 -128.25 M-320.8515625 -128.25 C-320.8515625 -145.17072776446483, -320.8515625 -162.09145552892969, -320.8515625 -171 M-320.8515625 -128.25 C-320.8515625 -141.02959974354496, -320.8515625 -153.80919948708996, -320.8515625 -171" stroke="#9370DB" stroke-width="1.3" fill="none" stroke-dasharray="0 0"/></g><g style="" class="row-rect-even"><path d="M-320.8515625 -128.25 L320.8515625 -128.25 L320.8515625 -85.5 L-320.8515625 -85.5" stroke="none" stroke-width="0" fill="hsl(240, 100%, 97.2745098039%)"/><path d="M-320.8515625 -128.25 C-141.6731532044619 -128.25, 37.505256091076205 -128.25, 320.8515625 -128.25 M-320.8515625 -128.25 C-103.76845644751285 -128.25, 113.3146496049743 -128.25, 320.8515625 -128.25 M320.8515625 -128.25 C320.8515625 -114.82982809010531, 320.8515625 -101.40965618021062, 320.8515625 -85.5 M320.8515625 -128.25 C320.8515625 -116.34368125400024, 320.8515625 -104.43736250800049, 320.8515625 -85.5 M320.8515625 -85.5 C161.19142275368134 -85.5, 1.5312830073626742 -85.5, -320.8515625 -85.5 M320.8515625 -85.5 C65.45661821454661 -85.5, -189.93832607090678 -85.5, -320.8515625 -85.5 M-320.8515625 -85.5 C-320.8515625 -94.1397774948281, -320.8515625 -102.77955498965619, -320.8515625 -128.25 M-320.8515625 -85.5 C-320.8515625 -99.74875810962955, -320.8515625 -113.9975162192591, -320.8515625 -128.25" stroke="#9370DB" stroke-width="1.3" fill="none" stroke-dasharray="0 0"/></g><g style="" class="row-rect-odd"><path d="M-320.8515625 -85.5 L320.8515625 -85.5 L320.8515625 -42.75 L-320.8515625 -42.75" stroke="none" stroke-width="0" fill="hsl(240, 100%, 100%)"/><path d="M-320.8515625 -85.5 C-81.11687764657478 -85.5, 158.61780720685044 -85.5, 320.8515625 -85.5 M-320.8515625 -85.5 C-67.82838940936983 -85.5, 185.19478368126033 -85.5, 320.8515625 -85.5 M320.8515625 -85.5 C320.8515625 -73.72033795396125, 320.8515625 -61.9406759079225, 320.8515625 -42.75 M320.8515625 -85.5 C320.8515625 -70.68522012824091, 320.8515625 -55.87044025648184, 320.8515625 -42.75 M320.8515625 -42.75 C188.00046610833854 -42.75, 55.149369716677086 -42.75, -320.8515625 -42.75 M320.8515625 -42.75 C124.41654688626429 -42.75, -72.01846872747143 -42.75, -320.8515625 -42.75 M-320.8515625 -42.75 C-320.8515625 -52.20789358192519, -320.8515625 -61.66578716385038, -320.8515625 -85.5 M-320.8515625 -42.75 C-320.8515625 -58.72632975838978, -320.8515625 -74.70265951677956, -320.8515625 -85.5" stroke="#9370DB" stroke-width="1.3" fill="none" stroke-dasharray="0 0"/></g><g style="" class="row-rect-even"><path d="M-320.8515625 -42.75 L320.8515625 -42.75 L320.8515625 0 L-320.8515625 0" stroke="none" stroke-width="0" fill="hsl(240, 100%, 97.2745098039%)"/><path d="M-320.8515625 -42.75 C-129.5276673740433 -42.75, 61.79622775191342 -42.75, 320.8515625 -42.75 M-320.8515625 -42.75 C-189.28823817935856 -42.75, -57.724913858717116 -42.75, 320.8515625 -42.75 M320.8515625 -42.75 C320.8515625 -34.147580369205144, 320.8515625 -25.545160738410285, 320.8515625 0 M320.8515625 -42.75 C320.8515625 -26.75368745116203, 320.8515625 -10.757374902324063, 320.8515625 0 M320.8515625 0 C176.46330764230743 0, 32.075052784614854 0, -320.8515625 0 M320.8515625 0 C128.78011367338337 0, -63.29133515323326 0, -320.8515625 0 M-320.8515625 0 C-320.8515625 -10.129123915051192, -320.8515625 -20.258247830102384, -320.8515625 -42.75 M-320.8515625 0 C-320.8515625 -13.821700570202585, -320.8515625 -27.64340114040517, -320.8515625 -42.75" stroke="#9370DB" stroke-width="1.3" fill="none" stroke-dasharray="0 0"/></g><g style="" class="row-rect-odd"><path d="M-320.8515625 0 L320.8515625 0 L320.8515625 42.75 L-320.8515625 42.75" stroke="none" stroke-width="0" fill="hsl(240, 100%, 100%)"/><path d="M-320.8515625 0 C-112.55431013661823 0, 95.74294222676355 0, 320.8515625 0 M-320.8515625 0 C-85.86494635856798 0, 149.12166978286405 0, 320.8515625 0 M320.8515625 0 C320.8515625 15.059022420013576, 320.8515625 30.118044840027153, 320.8515625 42.75 M320.8515625 0 C320.8515625 8.572378917662368, 320.8515625 17.144757835324736, 320.8515625 42.75 M320.8515625 42.75 C101.70975265654928 42.75, -117.43205718690143 42.75, -320.8515625 42.75 M320.8515625 42.75 C154.72226678881466 42.75, -11.407028922370671 42.75, -320.8515625 42.75 M-320.8515625 42.75 C-320.8515625 27.89479442223969, -320.8515625 13.039588844479379, -320.8515625 0 M-320.8515625 42.75 C-320.8515625 27.729461384329976, -320.8515625 12.708922768659953, -320.8515625 0" stroke="#9370DB" stroke-width="1.3" fill="none" stroke-dasharray="0 0"/></g><g style="" class="row-rect-even"><path d="M-320.8515625 42.75 L320.8515625 42.75 L320.8515625 85.5 L-320.8515625 85.5" stroke="none" stroke-width="0" fill="hsl(240, 100%, 97.2745098039%)"/><path d="M-320.8515625 42.75 C-152.25373106627134 42.75, 16.344100367457315 42.75, 320.8515625 42.75 M-320.8515625 42.75 C-100.00828088624579 42.75, 120.83500072750843 42.75, 320.8515625 42.75 M320.8515625 42.75 C320.8515625 53.85170247936828, 320.8515625 64.95340495873656, 320.8515625 85.5 M320.8515625 42.75 C320.8515625 59.339537705796715, 320.8515625 75.92907541159343, 320.8515625 85.5 M320.8515625 85.5 C83.58646849849148 85.5, -153.67862550301703 85.5, -320.8515625 85.5 M320.8515625 85.5 C172.0190206543182 85.5, 23.186478808636423 85.5, -320.8515625 85.5 M-320.8515625 85.5 C-320.8515625 69.53116721168244, -320.8515625 53.56233442336488, -320.8515625 42.75 M-320.8515625 85.5 C-320.8515625 76.11227939690835, -320.8515625 66.7245587938167, -320.8515625 42.75" stroke="#9370DB" stroke-width="1.3" fill="none" stroke-dasharray="0 0"/></g><g style="" class="row-rect-odd"><path d="M-320.8515625 85.5 L320.8515625 85.5 L320.8515625 128.25 L-320.8515625 128.25" stroke="none" stroke-width="0" fill="hsl(240, 100%, 100%)"/><path d="M-320.8515625 85.5 C-136.21867837994023 85.5, 48.41420574011954 85.5, 320.8515625 85.5 M-320.8515625 85.5 C-118.46698255863112 85.5, 83.91759738273777 85.5, 320.8515625 85.5 M320.8515625 85.5 C320.8515625 99.59556790884385, 320.8515625 113.6911358176877, 320.8515625 128.25 M320.8515625 85.5 C320.8515625 95.75273209888405, 320.8515625 106.0054641977681, 320.8515625 128.25 M320.8515625 128.25 C100.51040400626596 128.25, -119.83075448746808 128.25, -320.8515625 128.25 M320.8515625 128.25 C186.00781032683145 128.25, 51.16405815366289 128.25, -320.8515625 128.25 M-320.8515625 128.25 C-320.8515625 117.61370940730768, -320.8515625 106.97741881461536, -320.8515625 85.5 M-320.8515625 128.25 C-320.8515625 114.8532459636611, -320.8515625 101.45649192732219, -320.8515625 85.5" stroke="#9370DB" stroke-width="1.3" fill="none" stroke-dasharray="0 0"/></g><g style="" class="row-rect-even"><path d="M-320.8515625 128.25 L320.8515625 128.25 L320.8515625 171 L-320.8515625 171" stroke="none" stroke-width="0" fill="hsl(240, 100%, 97.2745098039%)"/><path d="M-320.8515625 128.25 C-69.16365992317756 128.25, 182.52424265364488 128.25, 320.8515625 128.25 M-320.8515625 128.25 C-124.85281382831812 128.25, 71.14593484336376 128.25, 320.8515625 128.25 M320.8515625 128.25 C320.8515625 139.30069299879418, 320.8515625 150.35138599758835, 320.8515625 171 M320.8515625 128.25 C320.8515625 140.60381530781822, 320.8515625 152.95763061563645, 320.8515625 171 M320.8515625 171 C172.1060382139592 171, 23.36051392791842 171, -320.8515625 171 M320.8515625 171 C144.14253480556962 171, -32.56649288886075 171, -320.8515625 171 M-320.8515625 171 C-320.8515625 159.8427666983331, -320.8515625 148.68553339666622, -320.8515625 128.25 M-320.8515625 171 C-320.8515625 162.12395867443496, -320.8515625 153.24791734886992, -320.8515625 128.25" stroke="#9370DB" stroke-width="1.3" fill="none" stroke-dasharray="0 0"/></g><g style="" class="row-rect-odd"><path d="M-320.8515625 171 L320.8515625 171 L320.8515625 213.75 L-320.8515625 213.75" stroke="none" stroke-width="0" fill="hsl(240, 100%, 100%)"/><path d="M-320.8515625 171 C-99.51247405614785 171, 121.8266143877043 171, 320.8515625 171 M-320.8515625 171 C-152.3992421661628 171, 16.053078167674414 171, 320.8515625 171 M320.8515625 171 C320.8515625 186.4222259317643, 320.8515625 201.8444518635286, 320.8515625 213.75 M320.8515625 171 C320.8515625 180.86195669568446, 320.8515625 190.72391339136894, 320.8515625 213.75 M320.8515625 213.75 C112.48401377263465 213.75, -95.88353495473069 213.75, -320.8515625 213.75 M320.8515625 213.75 C84.01881592961544 213.75, -152.81393064076912 213.75, -320.8515625 213.75 M-320.8515625 213.75 C-320.8515625 201.3631743834501, -320.8515625 188.97634876690017, -320.8515625 171 M-320.8515625 213.75 C-320.8515625 199.62348799967347, -320.8515625 185.49697599934694, -320.8515625 171" stroke="#9370DB" stroke-width="1.3" fill="none" stroke-dasharray="0 0"/></g><g class="label name" transform="translate(-22.6953125, -204.375)" style=""><foreignObject width="45.390625" height="24"><div xmlns="http://www.w3.org/1999/xhtml" style="display: table-cell; white-space: nowrap; line-height: 1.5; max-width: 140px; text-align: start;"><span class="nodeLabel"><p>Venue</p></span></div></foreignObject></g><g class="label attribute-type" transform="translate(-308.3515625, -161.625)" style=""><foreignObject width="16.90625" height="24"><div xmlns="http://www.w3.org/1999/xhtml" style="display: table-cell; white-space: nowrap; line-height: 1.5; max-width: 117px; text-align: start;"><span class="nodeLabel"><p>int</p></span></div></foreignObject></g><g class="label attribute-name" transform="translate(-162.3671875, -161.625)" style=""><foreignObject width="72.953125" height="24"><div xmlns="http://www.w3.org/1999/xhtml" style="display: table-cell; white-space: nowrap; line-height: 1.5; max-width: 167px; text-align: start;"><span class="nodeLabel"><p>VenueKey</p></span></div></foreignObject></g><g class="label attribute-keys" transform="translate(-20.8515625, -161.625)" style=""><foreignObject width="21.34375" height="24"><div xmlns="http://www.w3.org/1999/xhtml" style="display: table-cell; white-space: nowrap; line-height: 1.5; max-width: 121px; text-align: start;"><span class="nodeLabel"><p>PK</p></span></div></foreignObject></g><g class="label attribute-comment" transform="translate(26.3828125, -161.625)" style=""><foreignObject width="223.1875" height="24"><div xmlns="http://www.w3.org/1999/xhtml" style="display: table-cell; white-space: nowrap; line-height: 1.5; max-width: 308px; text-align: start;"><span class="nodeLabel"><p>Surrogate primary key (identity)</p></span></div></foreignObject></g><g class="label attribute-type" transform="translate(-308.3515625, -118.875)" style=""><foreignObject width="30.25" height="24"><div xmlns="http://www.w3.org/1999/xhtml" style="display: table-cell; white-space: nowrap; line-height: 1.5; max-width: 128px; text-align: start;"><span class="nodeLabel"><p>uuid</p></span></div></foreignObject></g><g class="label attribute-name" transform="translate(-162.3671875, -118.875)" style=""><foreignObject width="79.1875" height="24"><div xmlns="http://www.w3.org/1999/xhtml" style="display: table-cell; white-space: nowrap; line-height: 1.5; max-width: 172px; text-align: start;"><span class="nodeLabel"><p>VenueGuid</p></span></div></foreignObject></g><g class="label attribute-keys" transform="translate(-20.8515625, -118.875)" style=""><foreignObject width="22.234375" height="24"><div xmlns="http://www.w3.org/1999/xhtml" style="display: table-cell; white-space: nowrap; line-height: 1.5; max-width: 124px; text-align: start;"><span class="nodeLabel"><p>UK</p></span></div></foreignObject></g><g class="label attribute-comment" transform="translate(26.3828125, -118.875)" style=""><foreignObject width="194.765625" height="24"><div xmlns="http://www.w3.org/1999/xhtml" style="display: table-cell; white-space: nowrap; line-height: 1.5; max-width: 275px; text-align: start;"><span class="nodeLabel"><p>Business key; alternate key</p></span></div></foreignObject></g><g class="label attribute-type" transform="translate(-308.3515625, -76.125)" style=""><foreignObject width="88.953125" height="24"><div xmlns="http://www.w3.org/1999/xhtml" style="display: table-cell; white-space: nowrap; line-height: 1.5; max-width: 189px; text-align: start;"><span class="nodeLabel"><p>varchar_200</p></span></div></foreignObject></g><g class="label attribute-name" transform="translate(-162.3671875, -76.125)" style=""><foreignObject width="42.6875" height="24"><div xmlns="http://www.w3.org/1999/xhtml" style="display: table-cell; white-space: nowrap; line-height: 1.5; max-width: 138px; text-align: start;"><span class="nodeLabel"><p>Name</p></span></div></foreignObject></g><g class="label attribute-keys" transform="translate(-20.8515625, -76.125)" style=""><foreignObject width="0" height="0"><div xmlns="http://www.w3.org/1999/xhtml" style="display: table-cell; white-space: nowrap; line-height: 1.5; max-width: 100px; text-align: start;"><span class="nodeLabel"></span></div></foreignObject></g><g class="label attribute-comment" transform="translate(26.3828125, -76.125)" style=""><foreignObject width="89.859375" height="24"><div xmlns="http://www.w3.org/1999/xhtml" style="display: table-cell; white-space: nowrap; line-height: 1.5; max-width: 179px; text-align: start;"><span class="nodeLabel"><p>Venue name</p></span></div></foreignObject></g><g class="label attribute-type" transform="translate(-308.3515625, -33.375)" style=""><foreignObject width="88.953125" height="24"><div xmlns="http://www.w3.org/1999/xhtml" style="display: table-cell; white-space: nowrap; line-height: 1.5; max-width: 189px; text-align: start;"><span class="nodeLabel"><p>varchar_500</p></span></div></foreignObject></g><g class="label attribute-name" transform="translate(-162.3671875, -33.375)" style=""><foreignObject width="58.703125" height="24"><div xmlns="http://www.w3.org/1999/xhtml" style="display: table-cell; white-space: nowrap; line-height: 1.5; max-width: 152px; text-align: start;"><span class="nodeLabel"><p>Address</p></span></div></foreignObject></g><g class="label attribute-keys" transform="translate(-20.8515625, -33.375)" style=""><foreignObject width="0" height="0"><div xmlns="http://www.w3.org/1999/xhtml" style="display: table-cell; white-space: nowrap; line-height: 1.5; max-width: 100px; text-align: start;"><span class="nodeLabel"></span></div></foreignObject></g><g class="label attribute-comment" transform="translate(26.3828125, -33.375)" style=""><foreignObject width="131.609375" height="24"><div xmlns="http://www.w3.org/1999/xhtml" style="display: table-cell; white-space: nowrap; line-height: 1.5; max-width: 216px; text-align: start;"><span class="nodeLabel"><p>Full street address</p></span></div></foreignObject></g><g class="label attribute-type" transform="translate(-308.3515625, 9.375)" style=""><foreignObject width="120.984375" height="24"><div xmlns="http://www.w3.org/1999/xhtml" style="display: table-cell; white-space: nowrap; line-height: 1.5; max-width: 210px; text-align: start;"><span class="nodeLabel"><p>double_precision</p></span></div></foreignObject></g><g class="label attribute-name" transform="translate(-162.3671875, 9.375)" style=""><foreignObject width="56.9375" height="24"><div xmlns="http://www.w3.org/1999/xhtml" style="display: table-cell; white-space: nowrap; line-height: 1.5; max-width: 153px; text-align: start;"><span class="nodeLabel"><p>Latitude</p></span></div></foreignObject></g><g class="label attribute-keys" transform="translate(-20.8515625, 9.375)" style=""><foreignObject width="0" height="0"><div xmlns="http://www.w3.org/1999/xhtml" style="display: table-cell; white-space: nowrap; line-height: 1.5; max-width: 100px; text-align: start;"><span class="nodeLabel"></span></div></foreignObject></g><g class="label attribute-comment" transform="translate(26.3828125, 9.375)" style=""><foreignObject width="204.109375" height="24"><div xmlns="http://www.w3.org/1999/xhtml" style="display: table-cell; white-space: nowrap; line-height: 1.5; max-width: 289px; text-align: start;"><span class="nodeLabel"><p>WGS 84 latitude (-90 to +90)</p></span></div></foreignObject></g><g class="label attribute-type" transform="translate(-308.3515625, 52.125)" style=""><foreignObject width="120.984375" height="24"><div xmlns="http://www.w3.org/1999/xhtml" style="display: table-cell; white-space: nowrap; line-height: 1.5; max-width: 210px; text-align: start;"><span class="nodeLabel"><p>double_precision</p></span></div></foreignObject></g><g class="label attribute-name" transform="translate(-162.3671875, 52.125)" style=""><foreignObject width="70.296875" height="24"><div xmlns="http://www.w3.org/1999/xhtml" style="display: table-cell; white-space: nowrap; line-height: 1.5; max-width: 166px; text-align: start;"><span class="nodeLabel"><p>Longitude</p></span></div></foreignObject></g><g class="label attribute-keys" transform="translate(-20.8515625, 52.125)" style=""><foreignObject width="0" height="0"><div xmlns="http://www.w3.org/1999/xhtml" style="display: table-cell; white-space: nowrap; line-height: 1.5; max-width: 100px; text-align: start;"><span class="nodeLabel"></span></div></foreignObject></g><g class="label attribute-comment" transform="translate(26.3828125, 52.125)" style=""><foreignObject width="235.25" height="24"><div xmlns="http://www.w3.org/1999/xhtml" style="display: table-cell; white-space: nowrap; line-height: 1.5; max-width: 317px; text-align: start;"><span class="nodeLabel"><p>WGS 84 longitude (-180 to +180)</p></span></div></foreignObject></g><g class="label attribute-type" transform="translate(-308.3515625, 94.875)" style=""><foreignObject width="16.90625" height="24"><div xmlns="http://www.w3.org/1999/xhtml" style="display: table-cell; white-space: nowrap; line-height: 1.5; max-width: 117px; text-align: start;"><span class="nodeLabel"><p>int</p></span></div></foreignObject></g><g class="label attribute-name" transform="translate(-162.3671875, 94.875)" style=""><foreignObject width="116.515625" height="24"><div xmlns="http://www.w3.org/1999/xhtml" style="display: table-cell; white-space: nowrap; line-height: 1.5; max-width: 205px; text-align: start;"><span class="nodeLabel"><p>SeatingCapacity</p></span></div></foreignObject></g><g class="label attribute-keys" transform="translate(-20.8515625, 94.875)" style=""><foreignObject width="0" height="0"><div xmlns="http://www.w3.org/1999/xhtml" style="display: table-cell; white-space: nowrap; line-height: 1.5; max-width: 100px; text-align: start;"><span class="nodeLabel"></span></div></foreignObject></g><g class="label attribute-comment" transform="translate(26.3828125, 94.875)" style=""><foreignObject width="171.625" height="24"><div xmlns="http://www.w3.org/1999/xhtml" style="display: table-cell; white-space: nowrap; line-height: 1.5; max-width: 256px; text-align: start;"><span class="nodeLabel"><p>Maximum audience size</p></span></div></foreignObject></g><g class="label attribute-type" transform="translate(-308.3515625, 137.625)" style=""><foreignObject width="97.84375" height="24"><div xmlns="http://www.w3.org/1999/xhtml" style="display: table-cell; white-space: nowrap; line-height: 1.5; max-width: 198px; text-align: start;"><span class="nodeLabel"><p>varchar_2000</p></span></div></foreignObject></g><g class="label attribute-name" transform="translate(-162.3671875, 137.625)" style=""><foreignObject width="80.03125" height="24"><div xmlns="http://www.w3.org/1999/xhtml" style="display: table-cell; white-space: nowrap; line-height: 1.5; max-width: 175px; text-align: start;"><span class="nodeLabel"><p>Description</p></span></div></foreignObject></g><g class="label attribute-keys" transform="translate(-20.8515625, 137.625)" style=""><foreignObject width="0" height="0"><div xmlns="http://www.w3.org/1999/xhtml" style="display: table-cell; white-space: nowrap; line-height: 1.5; max-width: 100px; text-align: start;"><span class="nodeLabel"></span></div></foreignObject></g><g class="label attribute-comment" transform="translate(26.3828125, 137.625)" style=""><foreignObject width="268.59375" height="24"><div xmlns="http://www.w3.org/1999/xhtml" style="display: table-cell; white-space: nowrap; line-height: 1.5; max-width: 349px; text-align: start;"><span class="nodeLabel"><p>Optional free-text description; nullable</p></span></div></foreignObject></g><g class="label attribute-type" transform="translate(-308.3515625, 180.375)" style=""><foreignObject width="86.25" height="24"><div xmlns="http://www.w3.org/1999/xhtml" style="display: table-cell; white-space: nowrap; line-height: 1.5; max-width: 178px; text-align: start;"><span class="nodeLabel"><p>timestamptz</p></span></div></foreignObject></g><g class="label attribute-name" transform="translate(-162.3671875, 180.375)" style=""><foreignObject width="72.046875" height="24"><div xmlns="http://www.w3.org/1999/xhtml" style="display: table-cell; white-space: nowrap; line-height: 1.5; max-width: 166px; text-align: start;"><span class="nodeLabel"><p>CreatedAt</p></span></div></foreignObject></g><g class="label attribute-keys" transform="translate(-20.8515625, 180.375)" style=""><foreignObject width="0" height="0"><div xmlns="http://www.w3.org/1999/xhtml" style="display: table-cell; white-space: nowrap; line-height: 1.5; max-width: 100px; text-align: start;"><span class="nodeLabel"></span></div></foreignObject></g><g class="label attribute-comment" transform="translate(26.3828125, 180.375)" style=""><foreignObject width="281.96875" height="24"><div xmlns="http://www.w3.org/1999/xhtml" style="display: table-cell; white-space: nowrap; line-height: 1.5; max-width: 351px; text-align: start;"><span class="nodeLabel"><p>When ingested into the data warehouse</p></span></div></foreignObject></g><g class="divider"><path d="M-320.8515625 -171 C-103.70339215965947 -171, 113.44477818068106 -171, 320.8515625 -171 M-320.8515625 -171 C-178.4170830696125 -171, -35.982603639224976 -171, 320.8515625 -171" stroke="#9370DB" stroke-width="1.3" fill="none" stroke-dasharray="0 0"/></g><g class="divider"><path d="M-174.8671875 -171 C-174.8671875 -54.761734613682876, -174.8671875 61.47653077263425, -174.8671875 213.75 M-174.8671875 -171 C-174.8671875 -90.8851607912335, -174.8671875 -10.770321582467005, -174.8671875 213.75" stroke="#9370DB" stroke-width="1.3" fill="none" stroke-dasharray="0 0"/></g><g class="divider"><path d="M-33.3515625 -171 C-33.3515625 -43.65336725495506, -33.3515625 83.69326549008989, -33.3515625 213.75 M-33.3515625 -171 C-33.3515625 -69.60372905275266, -33.3515625 31.79254189449469, -33.3515625 213.75" stroke="#9370DB" stroke-width="1.3" fill="none" stroke-dasharray="0 0"/></g><g class="divider"><path d="M13.8828125 -171 C13.8828125 -57.57170338985122, 13.8828125 55.856593220297555, 13.8828125 213.75 M13.8828125 -171 C13.8828125 -23.044292647374135, 13.8828125 124.91141470525173, 13.8828125 213.75" stroke="#9370DB" stroke-width="1.3" fill="none" stroke-dasharray="0 0"/></g><g class="divider"><path d="M-320.8515625 -171 C-189.18650030802277 -171, -57.521438116045545 -171, 320.8515625 -171 M-320.8515625 -171 C-137.30181393797554 -171, 46.24793462404892 -171, 320.8515625 -171" stroke="#9370DB" stroke-width="1.3" fill="none" stroke-dasharray="0 0"/></g></g></g></g></g></svg>